<?xml version="1.0" encoding="UTF-8" standalone="no"?>
<!-- Created with Inkscape (http://www.inkscape.org/) -->

<svg
   width="70mm"
   height="70mm"
   viewBox="0 0 70 70"
   version="1.1"
   id="svg5"
   inkscape:version="1.1.2 (76b9e6a115, 2022-02-25)"
   sodipodi:docname="guess-stats-draft-thunder.svg"
   xmlns:inkscape="http://www.inkscape.org/namespaces/inkscape"
   xmlns:sodipodi="http://sodipodi.sourceforge.net/DTD/sodipodi-0.dtd"
   xmlns="http://www.w3.org/2000/svg"
   xmlns:svg="http://www.w3.org/2000/svg">
  <sodipodi:namedview
     id="namedview7"
     pagecolor="#ffffff"
     bordercolor="#666666"
     borderopacity="1.0"
     inkscape:pageshadow="2"
     inkscape:pageopacity="0.0"
     inkscape:pagecheckerboard="0"
     inkscape:document-units="mm"
     showgrid="false"
     showguides="true"
     inkscape:guide-bbox="true"
     inkscape:zoom="2.5620932"
     inkscape:cx="14.63647"
     inkscape:cy="134.46037"
     inkscape:window-width="2560"
     inkscape:window-height="1376"
     inkscape:window-x="1920"
     inkscape:window-y="27"
     inkscape:window-maximized="1"
     inkscape:current-layer="layer1"
     inkscape:snap-global="false" />
  <defs
     id="defs2">
    <clipPath
       id="clipEmfPath1"
       clipPathUnits="userSpaceOnUse">
      <path
         inkscape:connector-curvature="0"
         id="path3341"
         d="m 10.0023,16.2537 873.9497,0 0,890.2033 -873.9497,0 z" />
    </clipPath>
    <pattern
       y="0"
       x="0"
       height="6"
       width="6"
       patternUnits="userSpaceOnUse"
       id="EMFhbasepattern" />
    <clipPath
       id="clipEmfPath1-8"
       clipPathUnits="userSpaceOnUse">
      <path
         inkscape:connector-curvature="0"
         id="path3413"
         d="m 10.0023,16.2537 873.9497,0 0,871.4493 -873.9497,0 z" />
    </clipPath>
    <pattern
       y="0"
       x="0"
       height="6"
       width="6"
       patternUnits="userSpaceOnUse"
       id="EMFhbasepattern-9" />
    <clipPath
       id="clipEmfPath1-5"
       clipPathUnits="userSpaceOnUse">
      <path
         inkscape:connector-curvature="0"
         id="path3485"
         d="m 10.0023,16.2537 1068.9977,0 0,920.2103 -1068.9977,0 z" />
    </clipPath>
    <pattern
       y="0"
       x="0"
       height="6"
       width="6"
       patternUnits="userSpaceOnUse"
       id="EMFhbasepattern-0" />
  </defs>
  <g
     inkscape:label="Layer 1"
     inkscape:groupmode="layer"
     id="layer1">
    <path
       inkscape:connector-curvature="0"
       id="path3488"
       d="m 26.540484,21.893163 c -4.97824,0.663143 -8.65425,3.930709 -8.20738,7.299249 0.44688,3.373273 4.8485,5.569259 9.82675,4.906114 4.98304,-0.663081 8.65431,-3.930647 8.20738,-7.299187 -0.44687,-3.373273 -4.8437,-5.569259 -9.82675,-4.906176 z"
       style="fill:#a6a6a6;fill-opacity:1;fill-rule:evenodd;stroke:none;stroke-width:0.217889" />
    <path
       inkscape:connector-curvature="0"
       id="path3490"
       d="m 26.540484,21.893163 c -4.97824,0.663143 -8.65425,3.930709 -8.20738,7.299249 0.44688,3.373273 4.8485,5.569259 9.82675,4.906114 4.98304,-0.663081 8.65431,-3.930647 8.20738,-7.299187 -0.44687,-3.373273 -4.8437,-5.569259 -9.82675,-4.906176"
       style="fill:none;stroke:#000000;stroke-width:0.206626px;stroke-linecap:butt;stroke-linejoin:round;stroke-miterlimit:4;stroke-dasharray:none;stroke-opacity:1" />
    <path
       inkscape:connector-curvature="0"
       id="path3492"
       d="m 39.293634,19.774045 c -5.83835,0.773644 -10.19675,4.214254 -9.73543,7.683642 0.46133,3.464591 5.56447,5.650983 11.40288,4.87254 5.83835,-0.773647 10.19675,-4.214254 9.73543,-7.678847 -0.46126,-3.469386 -5.56447,-5.650982 -11.40288,-4.877335 z"
       style="fill:#a6a6a6;fill-opacity:1;fill-rule:evenodd;stroke:none;stroke-width:0.217889" />
    <path
       inkscape:connector-curvature="0"
       id="path3494"
       d="m 39.293634,19.774045 c -5.83835,0.773644 -10.19675,4.214254 -9.73543,7.683642 0.46133,3.464591 5.56447,5.650983 11.40288,4.87254 5.83835,-0.773647 10.19675,-4.214254 9.73543,-7.678847 -0.46126,-3.469386 -5.56447,-5.650982 -11.40288,-4.877335"
       style="fill:none;stroke:#000000;stroke-width:0.206626px;stroke-linecap:butt;stroke-linejoin:round;stroke-miterlimit:4;stroke-dasharray:none;stroke-opacity:1" />
    <path
       inkscape:connector-curvature="0"
       id="path3496"
       d="m 9.217534,15.137024 c -2.186393,3.88262 -1.10522,8.635002 2.40746,10.609983 3.51741,1.979774 8.13525,0.437278 10.32164,-3.445344 2.18646,-3.882684 1.10522,-8.63027 -2.4074,-10.610033 -3.51747,-1.979768 -8.13531,-0.437278 -10.3217,3.445394 z"
       style="fill:#a6a6a6;fill-opacity:1;fill-rule:evenodd;stroke:none;stroke-width:0.217889" />
    <path
       inkscape:connector-curvature="0"
       id="path3498"
       d="m 9.217534,15.137024 c -2.186393,3.88262 -1.10522,8.635002 2.40746,10.609983 3.51741,1.979774 8.13525,0.437278 10.32164,-3.445344 2.18646,-3.882684 1.10522,-8.63027 -2.4074,-10.610033 -3.51747,-1.979768 -8.13531,-0.437278 -10.3217,3.445394"
       style="fill:none;stroke:#000000;stroke-width:0.206626px;stroke-linecap:butt;stroke-linejoin:round;stroke-miterlimit:4;stroke-dasharray:none;stroke-opacity:1" />
    <path
       transform="matrix(0.06149324,0,0,0.06149324,1.447432,5.6658336)"
       inkscape:connector-curvature="0"
       id="path3500"
       d="M 364.536,24.3806 C 292.411,36.5709 241.774,92.443 251.386,149.175 260.997,205.828 327.184,241.93 399.232,229.74 471.28,217.628 521.916,161.756 512.305,105.024 502.771,48.2923 436.584,12.1903 364.536,24.3806 Z"
       clip-path="url(#clipEmfPath1-5)"
       style="fill:#a6a6a6;fill-opacity:1;fill-rule:evenodd;stroke:none" />
    <path
       transform="matrix(0.06149324,0,0,0.06149324,1.447432,5.6658336)"
       inkscape:connector-curvature="0"
       id="path3502"
       d="M 364.536,24.3806 C 292.411,36.5709 241.774,92.443 251.386,149.175 260.997,205.828 327.184,241.93 399.232,229.74 471.28,217.628 521.916,161.756 512.305,105.024 502.771,48.2923 436.584,12.1903 364.536,24.3806"
       clip-path="url(#clipEmfPath1-5)"
       style="fill:none;stroke:#000000;stroke-width:3.36014px;stroke-linecap:butt;stroke-linejoin:round;stroke-miterlimit:4;stroke-dasharray:none;stroke-opacity:1" />
    <path
       inkscape:connector-curvature="0"
       id="path3504"
       d="m 47.890264,13.541642 c -4.25269,0 -7.70283,2.503576 -7.70283,5.598161 0,3.094586 3.45014,5.602895 7.70283,5.602895 4.25263,0 7.70283,-2.508309 7.70283,-5.602895 0,-3.094585 -3.4502,-5.598161 -7.70283,-5.598161 z"
       style="fill:#a6a6a6;fill-opacity:1;fill-rule:evenodd;stroke:none;stroke-width:0.217889" />
    <path
       inkscape:connector-curvature="0"
       id="path3506"
       d="m 47.890264,13.541642 c -4.25269,0 -7.70283,2.503576 -7.70283,5.598161 0,3.094586 3.45014,5.602895 7.70283,5.602895 4.25263,0 7.70283,-2.508309 7.70283,-5.602895 0,-3.094585 -3.4502,-5.598161 -7.70283,-5.598161"
       style="fill:none;stroke:#000000;stroke-width:0.206626px;stroke-linecap:butt;stroke-linejoin:round;stroke-miterlimit:4;stroke-dasharray:none;stroke-opacity:1" />
    <path
       inkscape:connector-curvature="0"
       id="path3508"
       d="m 39.947184,9.0150995 c -6.39099,0 -11.56626,2.2632785 -11.56626,5.0599355 0,2.791855 5.17527,5.055114 11.56626,5.055114 6.3862,0 11.56626,-2.263259 11.56626,-5.055114 0,-2.796657 -5.18006,-5.0599355 -11.56626,-5.0599355 z"
       style="fill:#a6a6a6;fill-opacity:1;fill-rule:evenodd;stroke:none;stroke-width:0.217889" />
    <path
       inkscape:connector-curvature="0"
       id="path3510"
       d="m 39.947184,9.0150995 c -6.39099,0 -11.56626,2.2632785 -11.56626,5.0599355 0,2.791855 5.17527,5.055114 11.56626,5.055114 6.3862,0 11.56626,-2.263259 11.56626,-5.055114 0,-2.796657 -5.18006,-5.0599355 -11.56626,-5.0599355"
       style="fill:none;stroke:#000000;stroke-width:0.206626px;stroke-linecap:butt;stroke-linejoin:round;stroke-miterlimit:4;stroke-dasharray:none;stroke-opacity:1" />
    <path
       inkscape:connector-curvature="0"
       id="path3512"
       d="m 8.078684,17.904834 c -3.546277,0.470916 -6.054621,3.661615 -5.593314,7.131003 0.461305,3.469387 3.714464,5.896034 7.260764,5.425119 3.55105,-0.470916 6.05462,-3.661617 5.5933,-7.131003 -0.46132,-3.469389 -3.70964,-5.896034 -7.26075,-5.425119 z"
       style="fill:#a6a6a6;fill-opacity:1;fill-rule:evenodd;stroke:none;stroke-width:0.217889" />
    <path
       transform="matrix(0.06149324,0,0,0.06149324,1.447432,5.6658336)"
       inkscape:connector-curvature="0"
       id="path3514"
       d="m 107.837,199.03 c -57.6693,7.658 -98.45986,59.545 -90.9581,115.964 7.5017,56.419 60.4044,95.881 118.0741,88.223 57.747,-7.658 98.46,-59.545 90.958,-115.964 -7.502,-56.419 -60.326,-95.881 -118.074,-88.223"
       clip-path="url(#clipEmfPath1-5)"
       style="fill:none;stroke:#000000;stroke-width:3.36014px;stroke-linecap:butt;stroke-linejoin:round;stroke-miterlimit:4;stroke-dasharray:none;stroke-opacity:1" />
    <path
       inkscape:connector-curvature="0"
       id="path3516"
       d="m 14.709924,23.815319 c -3.9403,0.523738 -6.842658,3.123364 -6.4871,5.804716 0.35561,2.681352 3.83945,4.430466 7.77975,3.906667 3.9403,-0.518943 6.84266,-3.118569 6.48711,-5.799921 -0.35562,-2.686148 -3.83946,-4.435262 -7.77976,-3.911462 z"
       style="fill:#a6a6a6;fill-opacity:1;fill-rule:evenodd;stroke:none;stroke-width:0.217889" />
    <path
       inkscape:connector-curvature="0"
       id="path3518"
       d="m 14.709924,23.815319 c -3.9403,0.523738 -6.842658,3.123364 -6.4871,5.804716 0.35561,2.681352 3.83945,4.430466 7.77975,3.906667 3.9403,-0.518943 6.84266,-3.118569 6.48711,-5.799921 -0.35562,-2.686148 -3.83946,-4.435262 -7.77976,-3.911462"
       style="fill:none;stroke:#000000;stroke-width:0.206626px;stroke-linecap:butt;stroke-linejoin:round;stroke-miterlimit:4;stroke-dasharray:none;stroke-opacity:1" />
    <path
       inkscape:connector-curvature="0"
       id="path3520"
       d="M 26.084024,12.888154 C 14.368764,15.252322 5.632809,20.960987 6.57945,25.636502 c 0.941829,4.680313 11.205874,6.55438 22.921074,4.185353 11.7152,-2.364168 20.45118,-8.072832 19.50455,-12.748347 -0.94183,-4.675518 -11.20585,-6.549561 -22.92105,-4.185354 z"
       style="fill:#a6a6a6;fill-opacity:1;fill-rule:evenodd;stroke:none;stroke-width:0.217889" />
    <path
       inkscape:connector-curvature="0"
       id="path3522"
       d="m 36.511434,23.579861 c -2.91201,0.384394 -4.95906,3.070542 -4.56981,5.992147 0.38919,2.926404 3.06575,4.983045 5.9729,4.598651 2.91201,-0.389253 4.95427,-3.070605 4.56501,-5.997007 -0.38439,-2.921605 -3.06095,-4.983044 -5.9681,-4.593791 z"
       style="fill:#d9d9d9;fill-opacity:1;fill-rule:evenodd;stroke:none;stroke-width:0.217889" />
    <path
       inkscape:connector-curvature="0"
       id="path3524"
       d="m 36.511434,23.579861 c -2.91201,0.384394 -4.95906,3.070542 -4.56981,5.992147 0.38919,2.926404 3.06575,4.983045 5.9729,4.598651 2.91201,-0.389253 4.95427,-3.070605 4.56501,-5.997007 -0.38439,-2.921605 -3.06095,-4.983044 -5.9681,-4.593791"
       style="fill:none;stroke:#000000;stroke-width:0.206626px;stroke-linecap:butt;stroke-linejoin:round;stroke-miterlimit:4;stroke-dasharray:none;stroke-opacity:1" />
    <path
       inkscape:connector-curvature="0"
       id="path3526"
       d="m 46.381404,27.063639 c -4.17576,0.552639 -7.27514,3.161859 -6.91959,5.828821 0.35562,2.6669 4.02683,4.37758 8.20259,3.820145 4.17576,-0.552579 7.27514,-3.161859 6.92438,-5.828761 -0.35561,-2.666901 -4.02682,-4.377582 -8.20738,-3.820205 z"
       style="fill:#d9d9d9;fill-opacity:1;fill-rule:evenodd;stroke:none;stroke-width:0.217889" />
    <path
       inkscape:connector-curvature="0"
       id="path3528"
       d="m 46.381404,27.063639 c -4.17576,0.552639 -7.27514,3.161859 -6.91959,5.828821 0.35562,2.6669 4.02683,4.37758 8.20259,3.820145 4.17576,-0.552579 7.27514,-3.161859 6.92438,-5.828761 -0.35561,-2.666901 -4.02682,-4.377582 -8.20738,-3.820205"
       style="fill:none;stroke:#000000;stroke-width:0.206626px;stroke-linecap:butt;stroke-linejoin:round;stroke-miterlimit:4;stroke-dasharray:none;stroke-opacity:1" />
    <path
       inkscape:connector-curvature="0"
       id="path3530"
       d="m 56.842454,25.790236 c -3.5703,0.475712 -6.21801,2.695802 -5.91528,4.954264 0.29793,2.263259 3.43575,3.714439 7.00125,3.238726 3.5703,-0.475712 6.22306,-2.690944 5.91989,-4.954203 -0.29762,-2.26332 -3.43556,-3.709703 -7.00586,-3.238787 z"
       style="fill:#d9d9d9;fill-opacity:1;fill-rule:evenodd;stroke:none;stroke-width:0.217889" />
    <path
       inkscape:connector-curvature="0"
       id="path3532"
       d="m 56.842454,25.790236 c -3.5703,0.475712 -6.21801,2.695802 -5.91528,4.954264 0.29793,2.263259 3.43575,3.714439 7.00125,3.238726 3.5703,-0.475712 6.22306,-2.690944 5.91989,-4.954203 -0.29762,-2.26332 -3.43556,-3.709703 -7.00586,-3.238787"
       style="fill:none;stroke:#000000;stroke-width:0.206626px;stroke-linecap:butt;stroke-linejoin:round;stroke-miterlimit:4;stroke-dasharray:none;stroke-opacity:1" />
    <path
       inkscape:connector-curvature="0"
       id="path3534"
       d="m 57.649734,16.338294 c -3.95955,0 -7.16943,1.912501 -7.16943,4.267077 0,2.354577 3.20988,4.267078 7.16943,4.267078 3.95955,0 7.16464,-1.912501 7.16464,-4.267078 0,-2.354576 -3.20509,-4.267077 -7.16464,-4.267077 z"
       style="fill:#d9d9d9;fill-opacity:1;fill-rule:evenodd;stroke:none;stroke-width:0.217889" />
    <path
       inkscape:connector-curvature="0"
       id="path3536"
       d="m 57.649734,16.338294 c -3.95955,0 -7.16943,1.912501 -7.16943,4.267077 0,2.354577 3.20988,4.267078 7.16943,4.267078 3.95955,0 7.16464,-1.912501 7.16464,-4.267078 0,-2.354576 -3.20509,-4.267077 -7.16464,-4.267077"
       style="fill:none;stroke:#000000;stroke-width:0.206626px;stroke-linecap:butt;stroke-linejoin:round;stroke-miterlimit:4;stroke-dasharray:none;stroke-opacity:1" />
    <path
       transform="matrix(0.06149324,0,0,0.06149324,1.447432,5.6658336)"
       inkscape:connector-curvature="0"
       id="path3538"
       d="m 957.172,211.064 c -57.982,7.658 -99.554,55.325 -92.756,106.43 6.799,51.106 59.311,86.27 117.371,78.534 58.063,-7.736 99.553,-55.403 92.753,-106.431 -6.72,-51.105 -59.31,-86.269 -117.368,-78.533 z"
       clip-path="url(#clipEmfPath1-5)"
       style="fill:#d9d9d9;fill-opacity:1;fill-rule:evenodd;stroke:none" />
    <path
       transform="matrix(0.06149324,0,0,0.06149324,1.447432,5.6658336)"
       inkscape:connector-curvature="0"
       id="path3540"
       d="m 957.172,211.064 c -57.982,7.658 -99.554,55.325 -92.756,106.43 6.799,51.106 59.311,86.27 117.371,78.534 58.063,-7.736 99.553,-55.403 92.753,-106.431 -6.72,-51.105 -59.31,-86.269 -117.368,-78.533"
       clip-path="url(#clipEmfPath1-5)"
       style="fill:none;stroke:#000000;stroke-width:3.36014px;stroke-linecap:butt;stroke-linejoin:round;stroke-miterlimit:4;stroke-dasharray:none;stroke-opacity:1" />
    <path
       inkscape:connector-curvature="0"
       id="path3542"
       d="m 44.814864,16.588202 c -3.57029,0.475712 -6.14588,3.229133 -5.76148,6.150738 0.38925,2.926402 3.59913,4.910974 7.16943,4.440058 3.5655,-0.475773 6.14594,-3.229133 5.75669,-6.155534 -0.38919,-2.921605 -3.59428,-4.910973 -7.16464,-4.435262 z"
       style="fill:#d9d9d9;fill-opacity:1;fill-rule:evenodd;stroke:none;stroke-width:0.217889" />
    <path
       inkscape:connector-curvature="0"
       id="path3544"
       d="m 44.814864,16.588202 c -3.57029,0.475712 -6.14588,3.229133 -5.76148,6.150738 0.38925,2.926402 3.59913,4.910974 7.16943,4.440058 3.5655,-0.475773 6.14594,-3.229133 5.75669,-6.155534 -0.38919,-2.921605 -3.59428,-4.910973 -7.16464,-4.435262"
       style="fill:none;stroke:#000000;stroke-width:0.206626px;stroke-linecap:butt;stroke-linejoin:round;stroke-miterlimit:4;stroke-dasharray:none;stroke-opacity:1" />
    <path
       inkscape:connector-curvature="0"
       id="path3546"
       d="m 38.789084,19.995113 c -3.34444,0 -6.04983,1.902907 -6.04983,4.252627 0,2.349779 2.70539,4.252688 6.04983,4.252688 3.3397,0 6.04983,-1.902909 6.04983,-4.252688 0,-2.34972 -2.71013,-4.252627 -6.04983,-4.252627 z"
       style="fill:#d9d9d9;fill-opacity:1;fill-rule:evenodd;stroke:none;stroke-width:0.217889" />
    <path
       inkscape:connector-curvature="0"
       id="path3548"
       d="m 38.789084,19.995113 c -3.34444,0 -6.04983,1.902907 -6.04983,4.252627 0,2.349779 2.70539,4.252688 6.04983,4.252688 3.3397,0 6.04983,-1.902909 6.04983,-4.252688 0,-2.34972 -2.71013,-4.252627 -6.04983,-4.252627"
       style="fill:none;stroke:#000000;stroke-width:0.206626px;stroke-linecap:butt;stroke-linejoin:round;stroke-miterlimit:4;stroke-dasharray:none;stroke-opacity:1" />
    <path
       inkscape:connector-curvature="0"
       id="path3550"
       d="m 48.572594,20.206527 c -8.54854,1.725131 -14.89151,6.025783 -14.16589,9.610533 0.72076,3.584747 8.23622,5.093608 16.78477,3.368477 8.55334,-1.72507 14.89643,-6.030581 14.17081,-9.615331 -0.72562,-3.584687 -8.24114,-5.088749 -16.78969,-3.363679 z"
       style="fill:#d9d9d9;fill-opacity:1;fill-rule:evenodd;stroke:none;stroke-width:0.217889" />
    <path
       id="path3552"
       style="fill:#ffc000;fill-opacity:1;fill-rule:evenodd;stroke:none;stroke-width:0.823517"
       d="M 91.371094 132.30078 L 78.662109 157.67188 L 83.904297 160.67188 L 67.882812 182.41016 L 73.138672 186.04492 L 53.335938 222.46289 L 86.908203 194.54883 L 80.498047 190.29688 L 101.35938 172.81055 L 93.892578 167.28906 L 115.90625 148.5332 L 91.371094 132.30078 z M 152.125 139.66406 L 118.89062 156.37305 L 148.71094 175.67969 L 138.5957 181.36328 L 166.85547 199.36133 L 158.17383 203.73828 L 203.65039 232.4707 L 176.82617 194.98438 L 183.94531 191.24414 L 162.24219 168.86914 L 169.3418 165.78125 L 152.125 139.66406 z "
       transform="scale(0.26458333)" />
    <path
       id="path3554"
       style="fill:#00b0f0;fill-opacity:1;fill-rule:evenodd;stroke:none;stroke-width:0.823517"
       d="M 126.89844 128.58594 L 123.42773 135.4082 C 123.01591 136.00777 122.77734 136.72046 122.77734 137.48438 C 122.77734 139.60935 124.59168 141.33594 126.84375 141.33594 C 129.07753 141.33594 130.89453 139.60935 130.89453 137.48438 C 130.89453 136.83621 130.72307 136.22434 130.41992 135.6875 L 130.51367 135.6875 L 126.89844 128.58594 z M 111.54883 129.25 L 108.13477 135.99219 C 107.68818 136.60788 107.42773 137.35009 107.42773 138.14844 C 107.42773 140.27341 109.24399 142 111.49609 142 C 113.72983 142 115.5625 140.27341 115.5625 138.14844 C 115.5625 137.50027 115.38951 136.88841 115.08398 136.35156 L 115.16406 136.35156 L 111.54883 129.25 z M 236.54102 129.3125 L 233.0625 136.16211 C 232.65496 136.75955 232.41797 137.47082 232.41797 138.23047 C 232.41797 140.35544 234.23445 142.0625 236.48633 142.0625 C 238.72052 142.0625 240.53516 140.35544 240.53516 138.23047 C 240.53516 137.58163 240.36409 136.96885 240.06055 136.43164 L 240.1543 136.43164 L 236.54102 129.3125 z M 41.8125 130.29297 L 38.320312 137.15234 C 37.920131 137.7458 37.689453 138.45229 37.689453 139.21094 C 37.689453 141.31755 39.505932 143.04297 41.757812 143.04297 C 43.991778 143.04297 45.806641 141.31755 45.806641 139.21094 C 45.806641 138.55247 45.633331 137.93439 45.326172 137.39453 L 45.425781 137.39453 L 41.8125 130.29297 z M 67.001953 130.29297 L 63.576172 137.06055 C 63.136243 137.67275 62.878906 138.41216 62.878906 139.21094 C 62.878906 141.31755 64.695159 143.04297 66.947266 143.04297 C 69.181004 143.04297 71.015625 141.31755 71.015625 139.21094 C 71.015625 138.55242 70.838932 137.93442 70.529297 137.39453 L 70.615234 137.39453 L 67.001953 130.29297 z M 206.62891 131.50977 L 203.14648 138.35156 C 203.14648 138.35156 203.14453 138.35352 203.14453 138.35352 C 202.74033 138.95241 202.50586 139.66416 202.50586 140.42773 C 202.50586 142.53458 204.32268 144.25977 206.55664 144.25977 C 208.80875 144.25977 210.625 142.53458 210.625 140.42773 C 210.625 139.77136 210.45047 139.1524 210.14453 138.61133 L 210.24219 138.61133 L 206.62891 131.50977 z M 170.25 141.49805 L 166.82227 148.25 C 166.37236 148.86716 166.10938 149.6143 166.10938 150.41602 C 166.10938 152.54099 167.92563 154.24805 170.17773 154.24805 C 172.42961 154.24805 174.24609 152.54099 174.24609 150.41602 C 174.24609 149.76708 174.07382 149.15445 173.76953 148.61719 L 173.86523 148.61719 L 170.25 141.49805 z M 23.976562 142.24414 L 20.5625 148.96875 C 20.10429 149.58882 19.835938 150.34343 19.835938 151.16016 C 19.835938 153.2849 21.652258 154.99219 23.904297 154.99219 C 26.156325 154.99219 27.972656 153.2849 27.972656 151.16016 C 27.972656 150.50964 27.802759 149.89849 27.501953 149.36328 L 27.591797 149.36328 L 23.976562 142.24414 z M 71.699219 144.27734 L 68.273438 151.04492 C 67.833509 151.65714 67.576172 152.39662 67.576172 153.19531 C 67.576172 155.30215 69.392424 157.02734 71.644531 157.02734 C 73.878497 157.02734 75.712891 155.30215 75.712891 153.19531 C 75.712891 152.53686 75.536174 151.91879 75.226562 151.37891 L 75.3125 151.37891 L 71.699219 144.27734 z M 217.61719 144.98633 L 214.14258 151.82812 C 213.73168 152.42723 213.49414 153.13938 213.49414 153.90234 C 213.49414 156.02732 215.31062 157.73438 217.5625 157.73438 C 219.79647 157.73438 221.61133 156.02732 221.61133 153.90234 C 221.61133 153.25418 221.43985 152.64231 221.13672 152.10547 L 221.23047 152.10547 L 217.61719 144.98633 z M 190.70117 149.18164 L 187.26367 155.93359 C 186.81966 156.55083 186.56055 157.29493 186.56055 158.09766 C 186.56055 160.2045 188.3768 161.92969 190.62891 161.92969 C 192.88075 161.92969 194.69727 160.2045 194.69727 158.09766 C 194.69727 157.44142 194.52264 156.82419 194.2168 156.2832 L 194.29688 156.2832 L 190.70117 149.18164 z M 205.375 152.78906 L 201.9043 159.60938 C 201.49204 160.20916 201.25391 160.92315 201.25391 161.6875 C 201.25391 163.81248 203.07016 165.53906 205.32227 165.53906 C 207.55623 165.53906 209.37109 163.81248 209.37109 161.6875 C 209.37109 161.03933 209.19961 160.42747 208.89648 159.89062 L 208.99023 159.89062 L 205.375 152.78906 z M 58.248047 153.52148 L 54.837891 160.25781 C 54.38854 160.87474 54.125 161.61883 54.125 162.41992 C 54.125 164.5449 55.941252 166.27148 58.193359 166.27148 C 60.44524 166.27148 62.261719 164.5449 62.261719 162.41992 C 62.261719 161.77165 62.088927 161.15995 61.785156 160.62305 L 61.863281 160.62305 L 58.248047 153.52148 z M 40.794922 157.00977 L 37.314453 163.8457 C 37.314453 163.8457 37.3125 163.84766 37.3125 163.84766 C 36.907428 164.44387 36.671875 165.15105 36.671875 165.9082 C 36.671875 168.03294 38.488354 169.75781 40.740234 169.75781 C 42.974238 169.75781 44.808594 168.03294 44.808594 165.9082 C 44.808594 165.25927 44.634238 164.64664 44.328125 164.10938 L 44.408203 164.10938 L 40.794922 157.00977 z M 111.23633 157.42578 L 107.80859 164.17773 C 107.3595 164.79297 107.0957 165.53814 107.0957 166.34375 C 107.0957 168.46873 108.93006 170.17578 111.16406 170.17578 C 113.41617 170.17578 115.23242 168.46873 115.23242 166.34375 C 115.23242 165.69303 115.06073 165.08025 114.75977 164.54492 L 114.84961 164.54492 L 111.23633 157.42578 z M 123.79297 166.66992 L 120.39648 173.39648 C 119.93859 174.01641 119.66992 174.77149 119.66992 175.58789 C 119.66992 177.71287 121.4864 179.41992 123.73828 179.41992 C 125.99039 179.41992 127.80664 177.71287 127.80664 175.58789 C 127.80664 174.93737 127.63674 174.32622 127.33594 173.79102 L 127.4082 173.79102 L 123.79297 166.66992 z M 181.56641 166.66992 L 178.10938 173.47852 C 177.68812 174.08263 177.44336 174.80686 177.44336 175.58789 C 177.44336 177.71287 179.25822 179.41992 181.49219 179.41992 C 183.74407 179.41992 185.56055 177.71287 185.56055 175.58789 C 185.56055 174.93737 185.39067 174.32622 185.08984 173.79102 L 185.17969 173.79102 L 181.56641 166.66992 z M 208.48047 167.41602 L 205.02539 174.22266 C 204.60415 174.82677 204.35938 175.551 204.35938 176.33203 C 204.35938 178.43864 206.17446 180.16406 208.4082 180.16406 C 210.66031 180.16406 212.47656 178.43864 212.47656 176.33203 C 212.47656 175.68151 212.30666 175.07036 212.00586 174.53516 L 212.0957 174.53516 L 208.48047 167.41602 z M 233.45312 167.41602 L 230.03906 174.14062 C 229.58086 174.76069 229.3125 175.5153 229.3125 176.33203 C 229.3125 178.43864 231.12875 180.16406 233.38086 180.16406 C 235.63297 180.16406 237.44922 178.43864 237.44922 176.33203 C 237.44922 175.68131 237.27753 175.07048 236.97656 174.53516 L 237.04883 174.53516 L 233.45312 167.41602 z M 110.05664 174.11523 L 106.56641 180.97266 C 106.16611 181.5666 105.93359 182.27355 105.93359 183.0332 C 105.93359 185.14005 107.74868 186.86523 109.98242 186.86523 C 112.23453 186.86523 114.05078 185.14005 114.05078 183.0332 C 114.05078 182.37535 113.87748 181.7563 113.57031 181.2168 L 113.66992 181.2168 L 110.05664 174.11523 z M 24.359375 176.24219 L 20.869141 183.09961 C 20.468827 183.69356 20.236328 184.4005 20.236328 185.16016 C 20.236328 187.267 22.05127 188.99219 24.285156 188.99219 C 26.537192 188.99219 28.353516 187.267 28.353516 185.16016 C 28.353516 184.5023 28.180222 183.88325 27.873047 183.34375 L 27.972656 183.34375 L 24.359375 176.24219 z M 49.548828 176.24219 L 46.060547 183.09961 C 45.659381 183.69356 45.425781 184.4005 45.425781 185.16016 C 45.425781 187.267 47.24226 188.99219 49.494141 188.99219 C 51.728106 188.99219 53.5625 187.267 53.5625 185.16016 C 53.5625 184.50257 53.386912 183.88309 53.078125 183.34375 L 53.162109 183.34375 L 49.548828 176.24219 z M 115.71094 187.42969 L 112.23828 194.27148 C 111.82741 194.87059 111.58984 195.5847 111.58984 196.34766 C 111.58984 198.47263 113.40418 200.17969 115.65625 200.17969 C 117.89003 200.17969 119.72461 198.47263 119.72461 196.34766 C 119.72461 195.69889 119.55215 195.08603 119.24609 194.54883 L 119.32617 194.54883 L 115.71094 187.42969 z M 144.89648 188.17383 L 141.42578 195.01367 C 141.01472 195.61328 140.77539 196.32772 140.77539 197.0918 C 140.77539 199.21678 142.59048 200.92383 144.82422 200.92383 C 147.07633 200.92383 148.89258 199.21678 148.89258 197.0918 C 148.89258 196.44286 148.72028 195.83023 148.41602 195.29297 L 148.51172 195.29297 L 144.89648 188.17383 z M 200.16406 188.17383 L 196.69141 195.01367 C 196.28037 195.61328 196.04102 196.32772 196.04102 197.0918 C 196.04102 199.21678 197.85588 200.92383 200.08984 200.92383 C 202.34195 200.92383 204.1582 199.21678 204.1582 197.0918 C 204.1582 196.44286 203.98591 195.83023 203.68164 195.29297 L 203.77734 195.29297 L 200.16406 188.17383 z M 225.35352 188.17383 L 221.87891 195.01562 C 221.46801 195.61473 221.23047 196.32875 221.23047 197.0918 C 221.23047 199.21678 223.04695 200.92383 225.29883 200.92383 C 227.53279 200.92383 229.36719 199.21678 229.36719 197.0918 C 229.36719 196.44286 229.19284 195.83023 228.88672 195.29297 L 228.9668 195.29297 L 225.35352 188.17383 z M 58.810547 190.56055 L 55.316406 197.42969 C 54.919255 198.02163 54.689453 198.72297 54.689453 199.47852 C 54.689453 201.58513 56.50379 203.31055 58.755859 203.31055 C 60.989636 203.31055 62.824219 201.58513 62.824219 199.47852 C 62.824219 198.82005 62.649426 198.20197 62.339844 197.66211 L 62.425781 197.66211 L 58.810547 190.56055 z M 96.664062 191.48438 L 93.189453 198.32617 C 92.779441 198.92528 92.541016 199.63938 92.541016 200.40234 C 92.541016 202.52732 94.357832 204.23437 96.591797 204.23438 C 98.843677 204.23438 100.66016 202.52732 100.66016 200.40234 C 100.66016 199.75375 100.48764 199.14061 100.18359 198.60352 L 100.27734 198.60352 L 96.664062 191.48438 z M 40.794922 199.4707 L 37.318359 206.30078 C 36.909864 206.8987 36.671875 207.60853 36.671875 208.36914 C 36.671875 210.49389 38.488354 212.2207 40.740234 212.2207 C 42.974238 212.2207 44.808594 210.49389 44.808594 208.36914 C 44.808594 207.7208 44.633719 207.10918 44.328125 206.57227 L 44.408203 206.57227 L 40.794922 199.4707 z M 131.94727 200.17969 L 128.47656 207.01953 C 128.06486 207.61904 127.82617 208.3319 127.82617 209.0957 C 127.82617 211.22067 129.64242 212.92773 131.89453 212.92773 C 134.12827 212.92773 135.96094 211.22067 135.96094 209.0957 C 135.96094 208.44753 135.78795 207.83567 135.48242 207.29883 L 135.5625 207.29883 L 131.94727 200.17969 z M 241.58984 200.92383 L 238.17188 207.6875 C 237.72701 208.30248 237.4668 209.04309 237.4668 209.83984 C 237.4668 211.96481 239.28305 213.67383 241.53516 213.67383 C 243.76867 213.67383 245.60547 211.96481 245.60547 209.83984 C 245.60547 209.19167 245.43073 208.57981 245.125 208.04297 L 245.20508 208.04297 L 241.58984 200.92383 z M 80.660156 209.36914 L 77.199219 216.18359 C 76.780017 216.78632 76.537109 217.5071 76.537109 218.28516 C 76.537109 220.40989 78.353362 222.11719 80.605469 222.11719 C 82.839434 222.11719 84.654297 220.40989 84.654297 218.28516 C 84.654297 217.63444 84.484046 217.02361 84.183594 216.48828 L 84.273438 216.48828 L 80.660156 209.36914 z M 106.95703 210.6582 L 103.48438 217.5 C 103.0735 218.0991 102.83594 218.81313 102.83594 219.57617 C 102.83594 221.70115 104.65024 223.4082 106.90234 223.4082 C 109.13631 223.4082 110.9707 221.70115 110.9707 219.57617 C 110.9707 218.92733 110.79822 218.31455 110.49219 217.77734 L 110.57227 217.77734 L 106.95703 210.6582 z M 216.59961 211.40234 L 213.19922 218.13281 C 212.74328 218.75192 212.47656 219.50582 212.47656 220.32031 C 212.47656 222.44506 214.29304 224.15234 216.54492 224.15234 C 218.79703 224.15234 220.61328 222.44506 220.61328 220.32031 C 220.61328 219.66899 220.44212 219.05717 220.14062 218.52148 L 220.21289 218.52148 L 216.59961 211.40234 z M 156.01172 212.92773 L 152.53711 219.77344 C 152.12721 220.37206 151.88867 221.08364 151.88867 221.8457 C 151.88867 223.97045 153.70492 225.67773 155.95703 225.67773 C 158.19077 225.67773 160.00781 223.97045 160.00781 221.8457 C 160.00781 221.19677 159.83501 220.58414 159.53125 220.04688 L 159.62695 220.04688 L 156.01172 212.92773 z M 177.98828 224.15234 L 174.5293 230.96289 C 174.10928 231.56642 173.86523 232.29054 173.86523 233.07031 C 173.86523 235.19528 175.68201 236.90234 177.91602 236.90234 C 180.1679 236.90234 181.98242 235.19528 181.98242 233.07031 C 181.98242 232.41959 181.81271 231.80681 181.51172 231.27148 L 181.60156 231.27148 L 177.98828 224.15234 z M 136.01562 225.67773 L 132.54297 232.51953 C 132.13209 233.11863 131.89453 233.83266 131.89453 234.5957 C 131.89453 236.72068 133.70883 238.42773 135.96094 238.42773 C 138.19468 238.42773 140.01172 236.72068 140.01172 234.5957 C 140.01172 233.94677 139.83888 233.33414 139.53516 232.79688 L 139.63086 232.79688 L 136.01562 225.67773 z "
       transform="scale(0.26458333)" />
  </g>
</svg>
